<mxfile host="Electron" modified="2024-04-10T23:51:11.637Z" agent="Mozilla/5.0 (Windows NT 10.0; Win64; x64) AppleWebKit/537.36 (KHTML, like Gecko) draw.io/24.1.0 Chrome/120.0.6099.109 Electron/28.1.0 Safari/537.36" etag="_LU-zT9Ws7MnqZHuahLQ" version="24.1.0" type="device" pages="2">
  <diagram name="PÃ¡gina-1" id="4Q0buKrX3lrpP2SzDMD8">
    <mxGraphModel dx="1929" dy="1675" grid="1" gridSize="10" guides="1" tooltips="1" connect="1" arrows="1" fold="1" page="1" pageScale="1" pageWidth="827" pageHeight="1169" math="0" shadow="0">
      <root>
        <mxCell id="0" />
        <mxCell id="1" parent="0" />
        <mxCell id="i-UAAXlkwUi-eAmsWa9d-85" value="&lt;font color=&quot;#000000&quot;&gt;Venta&lt;/font&gt;" style="swimlane;childLayout=stackLayout;horizontal=1;startSize=50;horizontalStack=0;rounded=1;fontSize=14;fontStyle=0;strokeWidth=2;resizeParent=0;resizeLast=1;shadow=0;dashed=0;align=center;arcSize=4;whiteSpace=wrap;html=1;fillColor=#b0e3e6;strokeColor=#0e8088;" parent="1" vertex="1">
          <mxGeometry x="-20" y="-10" width="160" height="120" as="geometry" />
        </mxCell>
        <mxCell id="i-UAAXlkwUi-eAmsWa9d-86" value="*#IdVenta&lt;div&gt;*FechaVenta&lt;/div&gt;&lt;div&gt;*HoraVenta&lt;/div&gt;&lt;div&gt;*TotalVenta&lt;/div&gt;" style="align=left;spacingLeft=4;fontSize=12;verticalAlign=top;resizable=0;rotatable=0;part=1;html=1;" parent="i-UAAXlkwUi-eAmsWa9d-85" vertex="1">
          <mxGeometry y="50" width="160" height="70" as="geometry" />
        </mxCell>
        <mxCell id="i-UAAXlkwUi-eAmsWa9d-89" value="&lt;font color=&quot;#000000&quot;&gt;Detalle&lt;/font&gt;" style="swimlane;childLayout=stackLayout;horizontal=1;startSize=50;horizontalStack=0;rounded=1;fontSize=14;fontStyle=0;strokeWidth=2;resizeParent=0;resizeLast=1;shadow=0;dashed=0;align=center;arcSize=4;whiteSpace=wrap;html=1;fillColor=#b0e3e6;strokeColor=#0e8088;" parent="1" vertex="1">
          <mxGeometry x="260" y="-10" width="134" height="120" as="geometry" />
        </mxCell>
        <mxCell id="i-UAAXlkwUi-eAmsWa9d-153" style="edgeStyle=orthogonalEdgeStyle;rounded=0;orthogonalLoop=1;jettySize=auto;html=1;exitX=1;exitY=0.5;exitDx=0;exitDy=0;endArrow=none;endFill=0;dashed=1;" parent="1" source="i-UAAXlkwUi-eAmsWa9d-91" edge="1">
          <mxGeometry relative="1" as="geometry">
            <mxPoint x="614" y="1010" as="targetPoint" />
          </mxGeometry>
        </mxCell>
        <mxCell id="i-UAAXlkwUi-eAmsWa9d-91" value="&lt;font color=&quot;#000000&quot;&gt;Empleado&lt;/font&gt;" style="swimlane;childLayout=stackLayout;horizontal=1;startSize=50;horizontalStack=0;rounded=1;fontSize=14;fontStyle=0;strokeWidth=2;resizeParent=0;resizeLast=1;shadow=0;dashed=0;align=center;arcSize=4;whiteSpace=wrap;html=1;fillColor=#b0e3e6;strokeColor=#0e8088;" parent="1" vertex="1">
          <mxGeometry x="280" y="980" width="170" height="140" as="geometry" />
        </mxCell>
        <mxCell id="i-UAAXlkwUi-eAmsWa9d-92" value="#*IdEmpleado&lt;div&gt;*PrimNombEmpleado&lt;/div&gt;&lt;div&gt;*SegNombEmpleado&lt;/div&gt;&lt;div&gt;*CIEmpleado&lt;/div&gt;&lt;div&gt;*FechaNacEmpleado&lt;/div&gt;" style="align=left;strokeColor=none;fillColor=none;spacingLeft=4;fontSize=12;verticalAlign=top;resizable=0;rotatable=0;part=1;html=1;" parent="i-UAAXlkwUi-eAmsWa9d-91" vertex="1">
          <mxGeometry y="50" width="170" height="90" as="geometry" />
        </mxCell>
        <mxCell id="i-UAAXlkwUi-eAmsWa9d-95" value="&lt;font color=&quot;#000000&quot;&gt;CategoriaProd&lt;/font&gt;" style="swimlane;childLayout=stackLayout;horizontal=1;startSize=50;horizontalStack=0;rounded=1;fontSize=14;fontStyle=0;strokeWidth=2;resizeParent=0;resizeLast=1;shadow=0;dashed=0;align=center;arcSize=4;whiteSpace=wrap;html=1;fillColor=#b0e3e6;strokeColor=#0e8088;" parent="1" vertex="1">
          <mxGeometry x="100" y="130" width="160" height="100" as="geometry" />
        </mxCell>
        <mxCell id="i-UAAXlkwUi-eAmsWa9d-96" value="*#IdCategoriaProd&lt;div&gt;*NombCategoriaProd&lt;/div&gt;&lt;div&gt;*DescripcionCategoriaProd&lt;/div&gt;" style="align=left;strokeColor=none;fillColor=none;spacingLeft=4;fontSize=12;verticalAlign=top;resizable=0;rotatable=0;part=1;html=1;" parent="i-UAAXlkwUi-eAmsWa9d-95" vertex="1">
          <mxGeometry y="50" width="160" height="50" as="geometry" />
        </mxCell>
        <mxCell id="i-UAAXlkwUi-eAmsWa9d-136" style="edgeStyle=orthogonalEdgeStyle;rounded=0;orthogonalLoop=1;jettySize=auto;html=1;exitX=0.5;exitY=0;exitDx=0;exitDy=0;startArrow=ERmany;startFill=0;endArrow=none;endFill=0;" parent="1" source="i-UAAXlkwUi-eAmsWa9d-99" edge="1">
          <mxGeometry relative="1" as="geometry">
            <mxPoint x="60" y="150" as="targetPoint" />
          </mxGeometry>
        </mxCell>
        <mxCell id="i-UAAXlkwUi-eAmsWa9d-99" value="&lt;font color=&quot;#000000&quot;&gt;Cliente&lt;/font&gt;" style="swimlane;childLayout=stackLayout;horizontal=1;startSize=50;horizontalStack=0;rounded=1;fontSize=14;fontStyle=0;strokeWidth=2;resizeParent=0;resizeLast=1;shadow=0;dashed=0;align=center;arcSize=4;whiteSpace=wrap;html=1;fillColor=#b0e3e6;strokeColor=#0e8088;" parent="1" vertex="1">
          <mxGeometry x="-20" y="250" width="160" height="130" as="geometry" />
        </mxCell>
        <mxCell id="i-UAAXlkwUi-eAmsWa9d-100" value="#*IdCli&lt;div&gt;*PrimNombreCli&lt;/div&gt;&lt;div&gt;*SegNombreCli&lt;/div&gt;&lt;div&gt;*CICli&lt;/div&gt;&lt;div&gt;*FechaNacCli&lt;/div&gt;" style="align=left;strokeColor=none;fillColor=none;spacingLeft=4;fontSize=12;verticalAlign=top;resizable=0;rotatable=0;part=1;html=1;" parent="i-UAAXlkwUi-eAmsWa9d-99" vertex="1">
          <mxGeometry y="50" width="160" height="80" as="geometry" />
        </mxCell>
        <mxCell id="i-UAAXlkwUi-eAmsWa9d-140" style="edgeStyle=orthogonalEdgeStyle;rounded=0;orthogonalLoop=1;jettySize=auto;html=1;exitX=0.5;exitY=0;exitDx=0;exitDy=0;endArrow=none;endFill=0;startArrow=ERmany;startFill=0;" parent="1" source="i-UAAXlkwUi-eAmsWa9d-101" edge="1">
          <mxGeometry relative="1" as="geometry">
            <mxPoint x="600" y="440" as="targetPoint" />
          </mxGeometry>
        </mxCell>
        <mxCell id="i-UAAXlkwUi-eAmsWa9d-101" value="&lt;font color=&quot;#000000&quot;&gt;GastoOperativo&lt;/font&gt;" style="swimlane;childLayout=stackLayout;horizontal=1;startSize=50;horizontalStack=0;rounded=1;fontSize=14;fontStyle=0;strokeWidth=2;resizeParent=0;resizeLast=1;shadow=0;dashed=0;align=center;arcSize=4;whiteSpace=wrap;html=1;fillColor=#b0e3e6;strokeColor=#0e8088;" parent="1" vertex="1">
          <mxGeometry x="550" y="520" width="160" height="130" as="geometry" />
        </mxCell>
        <mxCell id="i-UAAXlkwUi-eAmsWa9d-102" value="#*idGastoOperat&lt;div&gt;*FechaGastoOperat&lt;/div&gt;&lt;div&gt;*DescripcionGastoOperat&lt;/div&gt;&lt;div&gt;*MontoGastoOperat&lt;/div&gt;" style="align=left;strokeColor=none;fillColor=none;spacingLeft=4;fontSize=12;verticalAlign=top;resizable=0;rotatable=0;part=1;html=1;" parent="i-UAAXlkwUi-eAmsWa9d-101" vertex="1">
          <mxGeometry y="50" width="160" height="80" as="geometry" />
        </mxCell>
        <mxCell id="i-UAAXlkwUi-eAmsWa9d-148" style="edgeStyle=orthogonalEdgeStyle;rounded=0;orthogonalLoop=1;jettySize=auto;html=1;exitX=0.5;exitY=0;exitDx=0;exitDy=0;endArrow=none;endFill=0;dashed=1;" parent="1" source="i-UAAXlkwUi-eAmsWa9d-103" edge="1">
          <mxGeometry relative="1" as="geometry">
            <mxPoint x="460" y="270" as="targetPoint" />
          </mxGeometry>
        </mxCell>
        <mxCell id="i-UAAXlkwUi-eAmsWa9d-103" value="&lt;font color=&quot;#000000&quot;&gt;Inventario&lt;/font&gt;" style="swimlane;childLayout=stackLayout;horizontal=1;startSize=50;horizontalStack=0;rounded=1;fontSize=14;fontStyle=0;strokeWidth=2;resizeParent=0;resizeLast=1;shadow=0;dashed=0;align=center;arcSize=4;whiteSpace=wrap;html=1;fillColor=#b0e3e6;strokeColor=#0e8088;" parent="1" vertex="1">
          <mxGeometry x="400" y="360" width="160" height="120" as="geometry" />
        </mxCell>
        <mxCell id="i-UAAXlkwUi-eAmsWa9d-104" value="#*IdInvent&lt;div&gt;*CantidadInvent&lt;/div&gt;&lt;div&gt;*FechaEntregaInvent&lt;/div&gt;&lt;div&gt;&lt;br&gt;&lt;/div&gt;" style="align=left;strokeColor=none;fillColor=none;spacingLeft=4;fontSize=12;verticalAlign=top;resizable=0;rotatable=0;part=1;html=1;" parent="i-UAAXlkwUi-eAmsWa9d-103" vertex="1">
          <mxGeometry y="50" width="160" height="70" as="geometry" />
        </mxCell>
        <mxCell id="i-UAAXlkwUi-eAmsWa9d-150" style="edgeStyle=orthogonalEdgeStyle;rounded=0;orthogonalLoop=1;jettySize=auto;html=1;exitX=0.5;exitY=0;exitDx=0;exitDy=0;endArrow=none;endFill=0;startArrow=ERmany;startFill=0;" parent="1" source="i-UAAXlkwUi-eAmsWa9d-105" edge="1">
          <mxGeometry relative="1" as="geometry">
            <mxPoint x="60" y="460" as="targetPoint" />
          </mxGeometry>
        </mxCell>
        <mxCell id="i-UAAXlkwUi-eAmsWa9d-105" value="&lt;font color=&quot;#000000&quot;&gt;Compra&lt;/font&gt;" style="swimlane;childLayout=stackLayout;horizontal=1;startSize=50;horizontalStack=0;rounded=1;fontSize=14;fontStyle=0;strokeWidth=2;resizeParent=0;resizeLast=1;shadow=0;dashed=0;align=center;arcSize=4;whiteSpace=wrap;html=1;fillColor=#b0e3e6;strokeColor=#0e8088;" parent="1" vertex="1">
          <mxGeometry x="-70" y="530" width="160" height="120" as="geometry" />
        </mxCell>
        <mxCell id="i-UAAXlkwUi-eAmsWa9d-106" value="#*IdComp&lt;div&gt;*FechaComp&lt;/div&gt;&lt;div&gt;*MontoTotalcomp&lt;/div&gt;&lt;div&gt;*MetodoPago&lt;/div&gt;" style="align=left;strokeColor=none;fillColor=none;spacingLeft=4;fontSize=12;verticalAlign=top;resizable=0;rotatable=0;part=1;html=1;" parent="i-UAAXlkwUi-eAmsWa9d-105" vertex="1">
          <mxGeometry y="50" width="160" height="70" as="geometry" />
        </mxCell>
        <mxCell id="i-UAAXlkwUi-eAmsWa9d-120" value="" style="swimlane;childLayout=stackLayout;horizontal=1;startSize=50;horizontalStack=0;rounded=1;fontSize=14;fontStyle=0;strokeWidth=2;resizeParent=0;resizeLast=1;shadow=0;dashed=0;align=center;arcSize=4;whiteSpace=wrap;html=1;" parent="i-UAAXlkwUi-eAmsWa9d-105" vertex="1">
          <mxGeometry y="120" width="160" as="geometry" />
        </mxCell>
        <mxCell id="i-UAAXlkwUi-eAmsWa9d-152" style="edgeStyle=orthogonalEdgeStyle;rounded=0;orthogonalLoop=1;jettySize=auto;html=1;exitX=0.5;exitY=0;exitDx=0;exitDy=0;endArrow=none;endFill=0;startArrow=ERmany;startFill=0;" parent="1" source="i-UAAXlkwUi-eAmsWa9d-107" edge="1">
          <mxGeometry relative="1" as="geometry">
            <mxPoint x="180" y="440" as="targetPoint" />
          </mxGeometry>
        </mxCell>
        <mxCell id="i-UAAXlkwUi-eAmsWa9d-107" value="&lt;font color=&quot;#000000&quot;&gt;Tendencia&lt;/font&gt;" style="swimlane;childLayout=stackLayout;horizontal=1;startSize=50;horizontalStack=0;rounded=1;fontSize=14;fontStyle=0;strokeWidth=2;resizeParent=0;resizeLast=1;shadow=0;dashed=0;align=center;arcSize=4;whiteSpace=wrap;html=1;fillColor=#b0e3e6;strokeColor=#0e8088;" parent="1" vertex="1">
          <mxGeometry x="130" y="510" width="130" height="140" as="geometry" />
        </mxCell>
        <mxCell id="i-UAAXlkwUi-eAmsWa9d-108" value="#*IdTendencia&amp;nbsp;&lt;div&gt;*FechaInicioTendencia&lt;/div&gt;&lt;div&gt;*FechaFinTendencia&lt;/div&gt;&lt;div&gt;*DescripcionTendencia&lt;/div&gt;&lt;div&gt;*TipoTendencia&lt;/div&gt;" style="align=left;strokeColor=none;fillColor=none;spacingLeft=4;fontSize=12;verticalAlign=top;resizable=0;rotatable=0;part=1;html=1;" parent="i-UAAXlkwUi-eAmsWa9d-107" vertex="1">
          <mxGeometry y="50" width="130" height="90" as="geometry" />
        </mxCell>
        <mxCell id="i-UAAXlkwUi-eAmsWa9d-109" value="&lt;font color=&quot;#000000&quot;&gt;Productividad&lt;/font&gt;" style="swimlane;childLayout=stackLayout;horizontal=1;startSize=50;horizontalStack=0;rounded=1;fontSize=14;fontStyle=0;strokeWidth=2;resizeParent=0;resizeLast=1;shadow=0;dashed=0;align=center;arcSize=4;whiteSpace=wrap;html=1;fillColor=#b0e3e6;strokeColor=#0e8088;" parent="1" vertex="1">
          <mxGeometry x="650" y="670" width="160" height="120" as="geometry" />
        </mxCell>
        <mxCell id="i-UAAXlkwUi-eAmsWa9d-110" value="#*IdProductividad&lt;div&gt;*FechaInicioProductividad&lt;/div&gt;&lt;div&gt;*FechaFinProductividad&lt;/div&gt;&lt;div&gt;*DescripcionProductividad&lt;/div&gt;" style="align=left;strokeColor=none;fillColor=none;spacingLeft=4;fontSize=12;verticalAlign=top;resizable=0;rotatable=0;part=1;html=1;" parent="i-UAAXlkwUi-eAmsWa9d-109" vertex="1">
          <mxGeometry y="50" width="160" height="70" as="geometry" />
        </mxCell>
        <mxCell id="i-UAAXlkwUi-eAmsWa9d-139" style="edgeStyle=orthogonalEdgeStyle;rounded=0;orthogonalLoop=1;jettySize=auto;html=1;exitX=0.5;exitY=0;exitDx=0;exitDy=0;endArrow=none;endFill=0;dashed=1;" parent="1" source="i-UAAXlkwUi-eAmsWa9d-111" edge="1">
          <mxGeometry relative="1" as="geometry">
            <mxPoint x="620" y="180" as="targetPoint" />
            <Array as="points">
              <mxPoint x="640" y="211" />
              <mxPoint x="620" y="211" />
            </Array>
          </mxGeometry>
        </mxCell>
        <mxCell id="i-UAAXlkwUi-eAmsWa9d-111" value="&lt;font color=&quot;#000000&quot;&gt;Costo&lt;/font&gt;" style="swimlane;childLayout=stackLayout;horizontal=1;startSize=50;horizontalStack=0;rounded=1;fontSize=14;fontStyle=0;strokeWidth=2;resizeParent=0;resizeLast=1;shadow=0;dashed=0;align=center;arcSize=4;whiteSpace=wrap;html=1;fillColor=#b0e3e6;strokeColor=#0e8088;" parent="1" vertex="1">
          <mxGeometry x="570" y="270" width="160" height="120" as="geometry" />
        </mxCell>
        <mxCell id="i-UAAXlkwUi-eAmsWa9d-112" value="#*IDCosto&lt;div&gt;*MontoCosto&lt;/div&gt;&lt;div&gt;*FechaCosto&lt;/div&gt;&lt;div&gt;*DescripcionCosto&lt;/div&gt;" style="align=left;strokeColor=none;fillColor=none;spacingLeft=4;fontSize=12;verticalAlign=top;resizable=0;rotatable=0;part=1;html=1;" parent="i-UAAXlkwUi-eAmsWa9d-111" vertex="1">
          <mxGeometry y="50" width="160" height="70" as="geometry" />
        </mxCell>
        <mxCell id="i-UAAXlkwUi-eAmsWa9d-113" value="&lt;font color=&quot;#000000&quot;&gt;Ausentismo&lt;/font&gt;" style="swimlane;childLayout=stackLayout;horizontal=1;startSize=50;horizontalStack=0;rounded=1;fontSize=14;fontStyle=0;strokeWidth=2;resizeParent=0;resizeLast=1;shadow=0;dashed=0;align=center;arcSize=4;whiteSpace=wrap;html=1;fillColor=#b0e3e6;strokeColor=#0e8088;" parent="1" vertex="1">
          <mxGeometry x="-36" y="935" width="150" height="150" as="geometry" />
        </mxCell>
        <mxCell id="i-UAAXlkwUi-eAmsWa9d-114" value="#*IdAusentismo&lt;div&gt;*FechainicioAusentismo&lt;/div&gt;&lt;div&gt;*FechaFinAusentismo&lt;/div&gt;&lt;div&gt;*DescripcionAusentismo&lt;/div&gt;&lt;div&gt;*TipoAusencia&lt;/div&gt;&lt;div&gt;*DuracionAusentismo&lt;/div&gt;&lt;div&gt;&lt;br&gt;&lt;/div&gt;&lt;div&gt;&lt;br&gt;&lt;/div&gt;" style="align=left;strokeColor=none;fillColor=none;spacingLeft=4;fontSize=12;verticalAlign=top;resizable=0;rotatable=0;part=1;html=1;" parent="i-UAAXlkwUi-eAmsWa9d-113" vertex="1">
          <mxGeometry y="50" width="150" height="100" as="geometry" />
        </mxCell>
        <mxCell id="i-UAAXlkwUi-eAmsWa9d-118" value="&lt;font color=&quot;#000000&quot;&gt;Producto&lt;/font&gt;" style="swimlane;childLayout=stackLayout;horizontal=1;startSize=50;horizontalStack=0;rounded=1;fontSize=14;fontStyle=0;strokeWidth=2;resizeParent=0;resizeLast=1;shadow=0;dashed=0;align=center;arcSize=4;whiteSpace=wrap;html=1;fillColor=#b0e3e6;strokeColor=#0e8088;" parent="1" vertex="1">
          <mxGeometry x="530" y="-10" width="180" height="130" as="geometry" />
        </mxCell>
        <mxCell id="i-UAAXlkwUi-eAmsWa9d-119" value="#*IdProdu&lt;div&gt;*NombProdu&lt;/div&gt;&lt;div&gt;*DescripcionProdu&lt;/div&gt;&lt;div&gt;*PrecioProdu&lt;/div&gt;&lt;div&gt;*StockProd&lt;/div&gt;" style="align=left;strokeColor=none;fillColor=none;spacingLeft=4;fontSize=12;verticalAlign=top;resizable=0;rotatable=0;part=1;html=1;" parent="i-UAAXlkwUi-eAmsWa9d-118" vertex="1">
          <mxGeometry y="50" width="180" height="80" as="geometry" />
        </mxCell>
        <mxCell id="i-UAAXlkwUi-eAmsWa9d-124" value="" style="edgeStyle=entityRelationEdgeStyle;fontSize=12;html=1;endArrow=ERmany;rounded=0;" parent="1" edge="1">
          <mxGeometry width="100" height="100" relative="1" as="geometry">
            <mxPoint x="200" y="50" as="sourcePoint" />
            <mxPoint x="260" y="50" as="targetPoint" />
          </mxGeometry>
        </mxCell>
        <mxCell id="i-UAAXlkwUi-eAmsWa9d-128" value="" style="endArrow=none;html=1;rounded=0;dashed=1;dashPattern=1 2;" parent="1" edge="1">
          <mxGeometry relative="1" as="geometry">
            <mxPoint x="140" y="49.5" as="sourcePoint" />
            <mxPoint x="200" y="51" as="targetPoint" />
          </mxGeometry>
        </mxCell>
        <mxCell id="i-UAAXlkwUi-eAmsWa9d-132" value="" style="edgeStyle=entityRelationEdgeStyle;fontSize=12;html=1;endArrow=none;rounded=0;startArrow=ERmany;startFill=0;endFill=0;" parent="1" edge="1">
          <mxGeometry width="100" height="100" relative="1" as="geometry">
            <mxPoint x="395" y="60" as="sourcePoint" />
            <mxPoint x="450" y="60" as="targetPoint" />
          </mxGeometry>
        </mxCell>
        <mxCell id="i-UAAXlkwUi-eAmsWa9d-133" value="" style="endArrow=none;html=1;rounded=0;dashed=1;dashPattern=1 2;entryX=0;entryY=0.25;entryDx=0;entryDy=0;" parent="1" target="i-UAAXlkwUi-eAmsWa9d-119" edge="1">
          <mxGeometry relative="1" as="geometry">
            <mxPoint x="450" y="61" as="sourcePoint" />
            <mxPoint x="510" y="61" as="targetPoint" />
          </mxGeometry>
        </mxCell>
        <mxCell id="i-UAAXlkwUi-eAmsWa9d-137" style="edgeStyle=orthogonalEdgeStyle;rounded=0;orthogonalLoop=1;jettySize=auto;html=1;exitX=0.5;exitY=1;exitDx=0;exitDy=0;endArrow=none;endFill=0;dashed=1;" parent="1" source="i-UAAXlkwUi-eAmsWa9d-86" edge="1">
          <mxGeometry relative="1" as="geometry">
            <mxPoint x="60" y="150" as="targetPoint" />
          </mxGeometry>
        </mxCell>
        <mxCell id="i-UAAXlkwUi-eAmsWa9d-138" style="edgeStyle=orthogonalEdgeStyle;rounded=0;orthogonalLoop=1;jettySize=auto;html=1;exitX=0.5;exitY=1;exitDx=0;exitDy=0;endArrow=none;endFill=0;startArrow=ERmany;startFill=0;" parent="1" source="i-UAAXlkwUi-eAmsWa9d-119" edge="1">
          <mxGeometry relative="1" as="geometry">
            <mxPoint x="620" y="180" as="targetPoint" />
          </mxGeometry>
        </mxCell>
        <mxCell id="i-UAAXlkwUi-eAmsWa9d-141" style="edgeStyle=orthogonalEdgeStyle;rounded=0;orthogonalLoop=1;jettySize=auto;html=1;exitX=0.5;exitY=1;exitDx=0;exitDy=0;dashed=1;endArrow=none;endFill=0;" parent="1" source="i-UAAXlkwUi-eAmsWa9d-112" edge="1">
          <mxGeometry relative="1" as="geometry">
            <mxPoint x="600" y="440" as="targetPoint" />
          </mxGeometry>
        </mxCell>
        <mxCell id="i-UAAXlkwUi-eAmsWa9d-149" style="edgeStyle=orthogonalEdgeStyle;rounded=0;orthogonalLoop=1;jettySize=auto;html=1;exitX=0.5;exitY=1;exitDx=0;exitDy=0;endArrow=none;endFill=0;dashed=1;" parent="1" source="i-UAAXlkwUi-eAmsWa9d-100" edge="1">
          <mxGeometry relative="1" as="geometry">
            <mxPoint x="60" y="460" as="targetPoint" />
          </mxGeometry>
        </mxCell>
        <mxCell id="i-UAAXlkwUi-eAmsWa9d-151" style="edgeStyle=orthogonalEdgeStyle;rounded=0;orthogonalLoop=1;jettySize=auto;html=1;exitX=0.75;exitY=1;exitDx=0;exitDy=0;dashed=1;endArrow=none;endFill=0;" parent="1" source="i-UAAXlkwUi-eAmsWa9d-100" edge="1">
          <mxGeometry relative="1" as="geometry">
            <mxPoint x="180" y="450" as="targetPoint" />
          </mxGeometry>
        </mxCell>
        <mxCell id="i-UAAXlkwUi-eAmsWa9d-154" style="edgeStyle=orthogonalEdgeStyle;rounded=0;orthogonalLoop=1;jettySize=auto;html=1;exitX=0.5;exitY=1;exitDx=0;exitDy=0;endArrow=none;endFill=0;startArrow=ERmany;startFill=0;" parent="1" source="i-UAAXlkwUi-eAmsWa9d-110" edge="1">
          <mxGeometry relative="1" as="geometry">
            <mxPoint x="614" y="1010" as="targetPoint" />
          </mxGeometry>
        </mxCell>
        <mxCell id="i-UAAXlkwUi-eAmsWa9d-155" style="edgeStyle=orthogonalEdgeStyle;rounded=0;orthogonalLoop=1;jettySize=auto;html=1;exitX=0;exitY=0.25;exitDx=0;exitDy=0;dashed=1;endArrow=none;endFill=0;" parent="1" source="i-UAAXlkwUi-eAmsWa9d-92" edge="1">
          <mxGeometry relative="1" as="geometry">
            <mxPoint x="214" y="1010" as="targetPoint" />
          </mxGeometry>
        </mxCell>
        <mxCell id="i-UAAXlkwUi-eAmsWa9d-156" style="edgeStyle=orthogonalEdgeStyle;rounded=0;orthogonalLoop=1;jettySize=auto;html=1;exitX=1;exitY=0.25;exitDx=0;exitDy=0;endArrow=none;endFill=0;startArrow=ERmany;startFill=0;" parent="1" source="i-UAAXlkwUi-eAmsWa9d-114" edge="1">
          <mxGeometry relative="1" as="geometry">
            <mxPoint x="214" y="1010" as="targetPoint" />
          </mxGeometry>
        </mxCell>
        <mxCell id="i-UAAXlkwUi-eAmsWa9d-158" style="edgeStyle=orthogonalEdgeStyle;rounded=0;orthogonalLoop=1;jettySize=auto;html=1;exitX=0;exitY=1;exitDx=0;exitDy=0;endArrow=none;endFill=0;startArrow=ERmany;startFill=0;" parent="1" source="i-UAAXlkwUi-eAmsWa9d-119" edge="1">
          <mxGeometry relative="1" as="geometry">
            <mxPoint x="460" y="290" as="targetPoint" />
          </mxGeometry>
        </mxCell>
        <mxCell id="i-UAAXlkwUi-eAmsWa9d-159" style="edgeStyle=orthogonalEdgeStyle;rounded=0;orthogonalLoop=1;jettySize=auto;html=1;exitX=0;exitY=0.5;exitDx=0;exitDy=0;dashed=1;endArrow=none;endFill=0;" parent="1" source="i-UAAXlkwUi-eAmsWa9d-119" edge="1">
          <mxGeometry relative="1" as="geometry">
            <mxPoint x="410" y="180" as="targetPoint" />
          </mxGeometry>
        </mxCell>
        <mxCell id="i-UAAXlkwUi-eAmsWa9d-160" style="edgeStyle=orthogonalEdgeStyle;rounded=0;orthogonalLoop=1;jettySize=auto;html=1;exitX=1;exitY=0.25;exitDx=0;exitDy=0;endArrow=none;endFill=0;startArrow=ERmany;startFill=0;" parent="1" source="i-UAAXlkwUi-eAmsWa9d-96" edge="1">
          <mxGeometry relative="1" as="geometry">
            <mxPoint x="410" y="150" as="targetPoint" />
          </mxGeometry>
        </mxCell>
        <mxCell id="-leq6sYfg5rfWVWYENDm-5" value="&lt;font color=&quot;#000000&quot;&gt;DetalleCompra&lt;/font&gt;" style="swimlane;childLayout=stackLayout;horizontal=1;startSize=50;horizontalStack=0;rounded=1;fontSize=14;fontStyle=0;strokeWidth=2;resizeParent=0;resizeLast=1;shadow=0;dashed=0;align=center;arcSize=4;whiteSpace=wrap;html=1;fillColor=#b0e3e6;strokeColor=#0e8088;" parent="1" vertex="1">
          <mxGeometry x="260" y="690" width="160" height="120" as="geometry" />
        </mxCell>
        <mxCell id="-leq6sYfg5rfWVWYENDm-6" value="*cantidadDetComp&lt;div&gt;*PrecioDetComp&lt;/div&gt;&lt;div&gt;*MontoTotalProdDetComp&lt;/div&gt;" style="align=left;strokeColor=none;fillColor=none;spacingLeft=4;fontSize=12;verticalAlign=top;resizable=0;rotatable=0;part=1;html=1;" parent="-leq6sYfg5rfWVWYENDm-5" vertex="1">
          <mxGeometry y="50" width="160" height="70" as="geometry" />
        </mxCell>
        <mxCell id="-leq6sYfg5rfWVWYENDm-7" value="" style="swimlane;childLayout=stackLayout;horizontal=1;startSize=50;horizontalStack=0;rounded=1;fontSize=14;fontStyle=0;strokeWidth=2;resizeParent=0;resizeLast=1;shadow=0;dashed=0;align=center;arcSize=4;whiteSpace=wrap;html=1;" parent="-leq6sYfg5rfWVWYENDm-5" vertex="1">
          <mxGeometry y="120" width="160" as="geometry" />
        </mxCell>
        <mxCell id="-leq6sYfg5rfWVWYENDm-16" style="edgeStyle=orthogonalEdgeStyle;rounded=0;orthogonalLoop=1;jettySize=auto;html=1;exitX=0;exitY=0.5;exitDx=0;exitDy=0;endArrow=none;endFill=0;startArrow=ERmany;startFill=0;" parent="1" source="-leq6sYfg5rfWVWYENDm-6" edge="1">
          <mxGeometry relative="1" as="geometry">
            <mxPoint x="10" y="775" as="targetPoint" />
          </mxGeometry>
        </mxCell>
        <mxCell id="-leq6sYfg5rfWVWYENDm-17" style="edgeStyle=orthogonalEdgeStyle;rounded=0;orthogonalLoop=1;jettySize=auto;html=1;exitX=0.5;exitY=1;exitDx=0;exitDy=0;dashed=1;endArrow=none;endFill=0;" parent="1" source="i-UAAXlkwUi-eAmsWa9d-106" edge="1">
          <mxGeometry relative="1" as="geometry">
            <mxPoint x="10" y="780" as="targetPoint" />
          </mxGeometry>
        </mxCell>
        <mxCell id="-leq6sYfg5rfWVWYENDm-19" style="edgeStyle=orthogonalEdgeStyle;rounded=0;orthogonalLoop=1;jettySize=auto;html=1;exitX=1;exitY=0.5;exitDx=0;exitDy=0;endArrow=none;endFill=0;startArrow=ERmany;startFill=0;" parent="1" source="-leq6sYfg5rfWVWYENDm-6" edge="1">
          <mxGeometry relative="1" as="geometry">
            <mxPoint x="330" y="380" as="targetPoint" />
          </mxGeometry>
        </mxCell>
        <mxCell id="-leq6sYfg5rfWVWYENDm-21" style="edgeStyle=orthogonalEdgeStyle;rounded=0;orthogonalLoop=1;jettySize=auto;html=1;exitX=0;exitY=0.75;exitDx=0;exitDy=0;startArrow=none;startFill=0;dashed=1;endArrow=none;endFill=0;" parent="1" source="i-UAAXlkwUi-eAmsWa9d-119" edge="1">
          <mxGeometry relative="1" as="geometry">
            <mxPoint x="420" y="310" as="targetPoint" />
          </mxGeometry>
        </mxCell>
        <mxCell id="-leq6sYfg5rfWVWYENDm-23" value="" style="endArrow=none;html=1;rounded=0;dashed=1;" parent="1" edge="1">
          <mxGeometry width="50" height="50" relative="1" as="geometry">
            <mxPoint x="330" y="380" as="sourcePoint" />
            <mxPoint x="420" y="310" as="targetPoint" />
          </mxGeometry>
        </mxCell>
      </root>
    </mxGraphModel>
  </diagram>
  <diagram id="II2z-1H3Qzy13kdgS28y" name="PÃ¡gina-2">
    <mxGraphModel dx="1691" dy="508" grid="1" gridSize="10" guides="1" tooltips="1" connect="1" arrows="1" fold="1" page="1" pageScale="1" pageWidth="827" pageHeight="1169" math="0" shadow="0">
      <root>
        <mxCell id="0" />
        <mxCell id="1" parent="0" />
        <mxCell id="cPKNOaW4zX0RtkhG-VNr-1" value="&lt;font color=&quot;#000000&quot;&gt;Venta&lt;/font&gt;" style="swimlane;childLayout=stackLayout;horizontal=1;startSize=50;horizontalStack=0;rounded=1;fontSize=14;fontStyle=0;strokeWidth=2;resizeParent=0;resizeLast=1;shadow=0;dashed=0;align=center;arcSize=4;whiteSpace=wrap;html=1;fillColor=#b0e3e6;strokeColor=#0e8088;" vertex="1" parent="1">
          <mxGeometry x="60" y="40" width="160" height="120" as="geometry" />
        </mxCell>
        <mxCell id="cPKNOaW4zX0RtkhG-VNr-2" value="*#IdVenta&lt;div&gt;*FechaVenta&lt;/div&gt;&lt;div&gt;*HoraVenta&lt;/div&gt;&lt;div&gt;*TotalVenta&lt;/div&gt;" style="align=left;spacingLeft=4;fontSize=12;verticalAlign=top;resizable=0;rotatable=0;part=1;html=1;" vertex="1" parent="cPKNOaW4zX0RtkhG-VNr-1">
          <mxGeometry y="50" width="160" height="70" as="geometry" />
        </mxCell>
        <mxCell id="cPKNOaW4zX0RtkhG-VNr-3" value="&lt;font color=&quot;#000000&quot;&gt;Detalle&lt;/font&gt;" style="swimlane;childLayout=stackLayout;horizontal=1;startSize=50;horizontalStack=0;rounded=1;fontSize=14;fontStyle=0;strokeWidth=2;resizeParent=0;resizeLast=1;shadow=0;dashed=0;align=center;arcSize=4;whiteSpace=wrap;html=1;fillColor=#b0e3e6;strokeColor=#0e8088;" vertex="1" parent="1">
          <mxGeometry x="340" y="40" width="134" height="120" as="geometry" />
        </mxCell>
        <mxCell id="cPKNOaW4zX0RtkhG-VNr-4" style="edgeStyle=orthogonalEdgeStyle;rounded=0;orthogonalLoop=1;jettySize=auto;html=1;exitX=1;exitY=0.5;exitDx=0;exitDy=0;endArrow=none;endFill=0;dashed=1;" edge="1" parent="1" source="cPKNOaW4zX0RtkhG-VNr-5">
          <mxGeometry relative="1" as="geometry">
            <mxPoint x="694" y="1060" as="targetPoint" />
          </mxGeometry>
        </mxCell>
        <mxCell id="cPKNOaW4zX0RtkhG-VNr-5" value="&lt;font color=&quot;#000000&quot;&gt;Empleado&lt;/font&gt;" style="swimlane;childLayout=stackLayout;horizontal=1;startSize=50;horizontalStack=0;rounded=1;fontSize=14;fontStyle=0;strokeWidth=2;resizeParent=0;resizeLast=1;shadow=0;dashed=0;align=center;arcSize=4;whiteSpace=wrap;html=1;fillColor=#b0e3e6;strokeColor=#0e8088;" vertex="1" parent="1">
          <mxGeometry x="404" y="990" width="170" height="140" as="geometry" />
        </mxCell>
        <mxCell id="cPKNOaW4zX0RtkhG-VNr-6" value="#*IdEmpleado&lt;div&gt;*PrimNombEmpleado&lt;/div&gt;&lt;div&gt;*SegNombEmpleado&lt;/div&gt;&lt;div&gt;*CIEmpleado&lt;/div&gt;&lt;div&gt;*FechaNacEmpleado&lt;/div&gt;" style="align=left;strokeColor=none;fillColor=none;spacingLeft=4;fontSize=12;verticalAlign=top;resizable=0;rotatable=0;part=1;html=1;" vertex="1" parent="cPKNOaW4zX0RtkhG-VNr-5">
          <mxGeometry y="50" width="170" height="90" as="geometry" />
        </mxCell>
        <mxCell id="cPKNOaW4zX0RtkhG-VNr-7" value="&lt;font color=&quot;#000000&quot;&gt;CategoriaProd&lt;/font&gt;" style="swimlane;childLayout=stackLayout;horizontal=1;startSize=50;horizontalStack=0;rounded=1;fontSize=14;fontStyle=0;strokeWidth=2;resizeParent=0;resizeLast=1;shadow=0;dashed=0;align=center;arcSize=4;whiteSpace=wrap;html=1;fillColor=#b0e3e6;strokeColor=#0e8088;" vertex="1" parent="1">
          <mxGeometry x="180" y="180" width="160" height="100" as="geometry" />
        </mxCell>
        <mxCell id="cPKNOaW4zX0RtkhG-VNr-8" value="*#IdCategoriaProd&lt;div&gt;*NombCategoriaProd&lt;/div&gt;&lt;div&gt;*DescripcionCategoriaProd&lt;/div&gt;" style="align=left;strokeColor=none;fillColor=none;spacingLeft=4;fontSize=12;verticalAlign=top;resizable=0;rotatable=0;part=1;html=1;" vertex="1" parent="cPKNOaW4zX0RtkhG-VNr-7">
          <mxGeometry y="50" width="160" height="50" as="geometry" />
        </mxCell>
        <mxCell id="cPKNOaW4zX0RtkhG-VNr-9" style="edgeStyle=orthogonalEdgeStyle;rounded=0;orthogonalLoop=1;jettySize=auto;html=1;exitX=0.5;exitY=0;exitDx=0;exitDy=0;startArrow=ERmany;startFill=0;endArrow=none;endFill=0;" edge="1" parent="1" source="cPKNOaW4zX0RtkhG-VNr-10">
          <mxGeometry relative="1" as="geometry">
            <mxPoint x="140" y="200" as="targetPoint" />
          </mxGeometry>
        </mxCell>
        <mxCell id="cPKNOaW4zX0RtkhG-VNr-10" value="&lt;font color=&quot;#000000&quot;&gt;Cliente&lt;/font&gt;" style="swimlane;childLayout=stackLayout;horizontal=1;startSize=50;horizontalStack=0;rounded=1;fontSize=14;fontStyle=0;strokeWidth=2;resizeParent=0;resizeLast=1;shadow=0;dashed=0;align=center;arcSize=4;whiteSpace=wrap;html=1;fillColor=#b0e3e6;strokeColor=#0e8088;" vertex="1" parent="1">
          <mxGeometry x="60" y="300" width="160" height="130" as="geometry" />
        </mxCell>
        <mxCell id="cPKNOaW4zX0RtkhG-VNr-11" value="#*IdCli&lt;div&gt;*PrimNombreCli&lt;/div&gt;&lt;div&gt;*SegNombreCli&lt;/div&gt;&lt;div&gt;*CICli&lt;/div&gt;&lt;div&gt;*FechaNacCli&lt;/div&gt;" style="align=left;strokeColor=none;fillColor=none;spacingLeft=4;fontSize=12;verticalAlign=top;resizable=0;rotatable=0;part=1;html=1;" vertex="1" parent="cPKNOaW4zX0RtkhG-VNr-10">
          <mxGeometry y="50" width="160" height="80" as="geometry" />
        </mxCell>
        <mxCell id="cPKNOaW4zX0RtkhG-VNr-12" style="edgeStyle=orthogonalEdgeStyle;rounded=0;orthogonalLoop=1;jettySize=auto;html=1;exitX=0.5;exitY=0;exitDx=0;exitDy=0;endArrow=none;endFill=0;startArrow=ERmany;startFill=0;" edge="1" parent="1" source="cPKNOaW4zX0RtkhG-VNr-13">
          <mxGeometry relative="1" as="geometry">
            <mxPoint x="680" y="490" as="targetPoint" />
          </mxGeometry>
        </mxCell>
        <mxCell id="cPKNOaW4zX0RtkhG-VNr-13" value="&lt;font color=&quot;#000000&quot;&gt;GastoOperativo&lt;/font&gt;" style="swimlane;childLayout=stackLayout;horizontal=1;startSize=50;horizontalStack=0;rounded=1;fontSize=14;fontStyle=0;strokeWidth=2;resizeParent=0;resizeLast=1;shadow=0;dashed=0;align=center;arcSize=4;whiteSpace=wrap;html=1;fillColor=#b0e3e6;strokeColor=#0e8088;" vertex="1" parent="1">
          <mxGeometry x="630" y="570" width="160" height="130" as="geometry" />
        </mxCell>
        <mxCell id="cPKNOaW4zX0RtkhG-VNr-14" value="#*idGastoOperat&lt;div&gt;*FechaGastoOperat&lt;/div&gt;&lt;div&gt;*DescripcionGastoOperat&lt;/div&gt;&lt;div&gt;*MontoGastoOperat&lt;/div&gt;" style="align=left;strokeColor=none;fillColor=none;spacingLeft=4;fontSize=12;verticalAlign=top;resizable=0;rotatable=0;part=1;html=1;" vertex="1" parent="cPKNOaW4zX0RtkhG-VNr-13">
          <mxGeometry y="50" width="160" height="80" as="geometry" />
        </mxCell>
        <mxCell id="cPKNOaW4zX0RtkhG-VNr-15" style="edgeStyle=orthogonalEdgeStyle;rounded=0;orthogonalLoop=1;jettySize=auto;html=1;exitX=0.5;exitY=0;exitDx=0;exitDy=0;endArrow=none;endFill=0;dashed=1;" edge="1" parent="1" source="cPKNOaW4zX0RtkhG-VNr-16">
          <mxGeometry relative="1" as="geometry">
            <mxPoint x="540" y="320" as="targetPoint" />
          </mxGeometry>
        </mxCell>
        <mxCell id="cPKNOaW4zX0RtkhG-VNr-16" value="&lt;font color=&quot;#000000&quot;&gt;Inventario&lt;/font&gt;" style="swimlane;childLayout=stackLayout;horizontal=1;startSize=50;horizontalStack=0;rounded=1;fontSize=14;fontStyle=0;strokeWidth=2;resizeParent=0;resizeLast=1;shadow=0;dashed=0;align=center;arcSize=4;whiteSpace=wrap;html=1;fillColor=#b0e3e6;strokeColor=#0e8088;" vertex="1" parent="1">
          <mxGeometry x="480" y="410" width="160" height="120" as="geometry" />
        </mxCell>
        <mxCell id="cPKNOaW4zX0RtkhG-VNr-17" value="#*IdInvent&lt;div&gt;*CantidadInvent&lt;/div&gt;&lt;div&gt;*FechaEntregaInvent&lt;/div&gt;&lt;div&gt;&lt;br&gt;&lt;/div&gt;" style="align=left;strokeColor=none;fillColor=none;spacingLeft=4;fontSize=12;verticalAlign=top;resizable=0;rotatable=0;part=1;html=1;" vertex="1" parent="cPKNOaW4zX0RtkhG-VNr-16">
          <mxGeometry y="50" width="160" height="70" as="geometry" />
        </mxCell>
        <mxCell id="cPKNOaW4zX0RtkhG-VNr-18" style="edgeStyle=orthogonalEdgeStyle;rounded=0;orthogonalLoop=1;jettySize=auto;html=1;exitX=0.5;exitY=0;exitDx=0;exitDy=0;endArrow=none;endFill=0;startArrow=ERmany;startFill=0;" edge="1" parent="1" source="cPKNOaW4zX0RtkhG-VNr-19">
          <mxGeometry relative="1" as="geometry">
            <mxPoint x="140" y="510" as="targetPoint" />
          </mxGeometry>
        </mxCell>
        <mxCell id="cPKNOaW4zX0RtkhG-VNr-19" value="&lt;font color=&quot;#000000&quot;&gt;Compra&lt;/font&gt;" style="swimlane;childLayout=stackLayout;horizontal=1;startSize=50;horizontalStack=0;rounded=1;fontSize=14;fontStyle=0;strokeWidth=2;resizeParent=0;resizeLast=1;shadow=0;dashed=0;align=center;arcSize=4;whiteSpace=wrap;html=1;fillColor=#b0e3e6;strokeColor=#0e8088;" vertex="1" parent="1">
          <mxGeometry x="10" y="580" width="160" height="120" as="geometry" />
        </mxCell>
        <mxCell id="cPKNOaW4zX0RtkhG-VNr-20" value="#*IdComp&lt;div&gt;*FechaComp&lt;/div&gt;&lt;div&gt;*MontoTotalcomp&lt;/div&gt;&lt;div&gt;&lt;br&gt;&lt;/div&gt;" style="align=left;strokeColor=none;fillColor=none;spacingLeft=4;fontSize=12;verticalAlign=top;resizable=0;rotatable=0;part=1;html=1;" vertex="1" parent="cPKNOaW4zX0RtkhG-VNr-19">
          <mxGeometry y="50" width="160" height="70" as="geometry" />
        </mxCell>
        <mxCell id="cPKNOaW4zX0RtkhG-VNr-21" value="" style="swimlane;childLayout=stackLayout;horizontal=1;startSize=50;horizontalStack=0;rounded=1;fontSize=14;fontStyle=0;strokeWidth=2;resizeParent=0;resizeLast=1;shadow=0;dashed=0;align=center;arcSize=4;whiteSpace=wrap;html=1;" vertex="1" parent="cPKNOaW4zX0RtkhG-VNr-19">
          <mxGeometry y="120" width="160" as="geometry" />
        </mxCell>
        <mxCell id="cPKNOaW4zX0RtkhG-VNr-22" style="edgeStyle=orthogonalEdgeStyle;rounded=0;orthogonalLoop=1;jettySize=auto;html=1;exitX=0.5;exitY=0;exitDx=0;exitDy=0;endArrow=none;endFill=0;startArrow=ERmany;startFill=0;" edge="1" parent="1" source="cPKNOaW4zX0RtkhG-VNr-23">
          <mxGeometry relative="1" as="geometry">
            <mxPoint x="260" y="490" as="targetPoint" />
          </mxGeometry>
        </mxCell>
        <mxCell id="cPKNOaW4zX0RtkhG-VNr-23" value="&lt;font color=&quot;#000000&quot;&gt;Tendencia&lt;/font&gt;" style="swimlane;childLayout=stackLayout;horizontal=1;startSize=50;horizontalStack=0;rounded=1;fontSize=14;fontStyle=0;strokeWidth=2;resizeParent=0;resizeLast=1;shadow=0;dashed=0;align=center;arcSize=4;whiteSpace=wrap;html=1;fillColor=#b0e3e6;strokeColor=#0e8088;" vertex="1" parent="1">
          <mxGeometry x="210" y="560" width="130" height="140" as="geometry" />
        </mxCell>
        <mxCell id="cPKNOaW4zX0RtkhG-VNr-24" value="#*IdTendencia&amp;nbsp;&lt;div&gt;*FechaInicioTendencia&lt;/div&gt;&lt;div&gt;*FechaFinTendencia&lt;/div&gt;&lt;div&gt;*DescripcionTendencia&lt;/div&gt;&lt;div&gt;*TipoTendencia&lt;/div&gt;" style="align=left;strokeColor=none;fillColor=none;spacingLeft=4;fontSize=12;verticalAlign=top;resizable=0;rotatable=0;part=1;html=1;" vertex="1" parent="cPKNOaW4zX0RtkhG-VNr-23">
          <mxGeometry y="50" width="130" height="90" as="geometry" />
        </mxCell>
        <mxCell id="cPKNOaW4zX0RtkhG-VNr-25" value="&lt;font color=&quot;#000000&quot;&gt;Productividad&lt;/font&gt;" style="swimlane;childLayout=stackLayout;horizontal=1;startSize=50;horizontalStack=0;rounded=1;fontSize=14;fontStyle=0;strokeWidth=2;resizeParent=0;resizeLast=1;shadow=0;dashed=0;align=center;arcSize=4;whiteSpace=wrap;html=1;fillColor=#b0e3e6;strokeColor=#0e8088;" vertex="1" parent="1">
          <mxGeometry x="624" y="850" width="160" height="120" as="geometry" />
        </mxCell>
        <mxCell id="cPKNOaW4zX0RtkhG-VNr-26" value="#*IdProductividad&lt;div&gt;*FechaInicioProductividad&lt;/div&gt;&lt;div&gt;*FechaFinProductividad&lt;/div&gt;&lt;div&gt;*DescripcionProductividad&lt;/div&gt;" style="align=left;strokeColor=none;fillColor=none;spacingLeft=4;fontSize=12;verticalAlign=top;resizable=0;rotatable=0;part=1;html=1;" vertex="1" parent="cPKNOaW4zX0RtkhG-VNr-25">
          <mxGeometry y="50" width="160" height="70" as="geometry" />
        </mxCell>
        <mxCell id="cPKNOaW4zX0RtkhG-VNr-27" style="edgeStyle=orthogonalEdgeStyle;rounded=0;orthogonalLoop=1;jettySize=auto;html=1;exitX=0.5;exitY=0;exitDx=0;exitDy=0;endArrow=none;endFill=0;dashed=1;" edge="1" parent="1" source="cPKNOaW4zX0RtkhG-VNr-28">
          <mxGeometry relative="1" as="geometry">
            <mxPoint x="700" y="230" as="targetPoint" />
            <Array as="points">
              <mxPoint x="720" y="261" />
              <mxPoint x="700" y="261" />
            </Array>
          </mxGeometry>
        </mxCell>
        <mxCell id="cPKNOaW4zX0RtkhG-VNr-28" value="&lt;font color=&quot;#000000&quot;&gt;Costo&lt;/font&gt;" style="swimlane;childLayout=stackLayout;horizontal=1;startSize=50;horizontalStack=0;rounded=1;fontSize=14;fontStyle=0;strokeWidth=2;resizeParent=0;resizeLast=1;shadow=0;dashed=0;align=center;arcSize=4;whiteSpace=wrap;html=1;fillColor=#b0e3e6;strokeColor=#0e8088;" vertex="1" parent="1">
          <mxGeometry x="650" y="320" width="160" height="120" as="geometry" />
        </mxCell>
        <mxCell id="cPKNOaW4zX0RtkhG-VNr-29" value="#*IDCosto&lt;div&gt;*MontoCosto&lt;/div&gt;&lt;div&gt;*FechaCosto&lt;/div&gt;&lt;div&gt;*DescripcionCosto&lt;/div&gt;" style="align=left;strokeColor=none;fillColor=none;spacingLeft=4;fontSize=12;verticalAlign=top;resizable=0;rotatable=0;part=1;html=1;" vertex="1" parent="cPKNOaW4zX0RtkhG-VNr-28">
          <mxGeometry y="50" width="160" height="70" as="geometry" />
        </mxCell>
        <mxCell id="cPKNOaW4zX0RtkhG-VNr-30" value="&lt;font color=&quot;#000000&quot;&gt;Ausentismo&lt;/font&gt;" style="swimlane;childLayout=stackLayout;horizontal=1;startSize=50;horizontalStack=0;rounded=1;fontSize=14;fontStyle=0;strokeWidth=2;resizeParent=0;resizeLast=1;shadow=0;dashed=0;align=center;arcSize=4;whiteSpace=wrap;html=1;fillColor=#b0e3e6;strokeColor=#0e8088;" vertex="1" parent="1">
          <mxGeometry x="44" y="985" width="150" height="150" as="geometry" />
        </mxCell>
        <mxCell id="cPKNOaW4zX0RtkhG-VNr-31" value="#*IdAusentismo&lt;div&gt;*FechainicioAusentismo&lt;/div&gt;&lt;div&gt;*FechaFinAusentismo&lt;/div&gt;&lt;div&gt;*DescripcionAusentismo&lt;/div&gt;&lt;div&gt;*TipoAusencia&lt;/div&gt;&lt;div&gt;*DuracionAusentismo&lt;/div&gt;&lt;div&gt;&lt;br&gt;&lt;/div&gt;&lt;div&gt;&lt;br&gt;&lt;/div&gt;" style="align=left;strokeColor=none;fillColor=none;spacingLeft=4;fontSize=12;verticalAlign=top;resizable=0;rotatable=0;part=1;html=1;" vertex="1" parent="cPKNOaW4zX0RtkhG-VNr-30">
          <mxGeometry y="50" width="150" height="100" as="geometry" />
        </mxCell>
        <mxCell id="cPKNOaW4zX0RtkhG-VNr-32" value="&lt;font color=&quot;#000000&quot;&gt;Producto&lt;/font&gt;" style="swimlane;childLayout=stackLayout;horizontal=1;startSize=50;horizontalStack=0;rounded=1;fontSize=14;fontStyle=0;strokeWidth=2;resizeParent=0;resizeLast=1;shadow=0;dashed=0;align=center;arcSize=4;whiteSpace=wrap;html=1;fillColor=#b0e3e6;strokeColor=#0e8088;" vertex="1" parent="1">
          <mxGeometry x="610" y="40" width="180" height="130" as="geometry" />
        </mxCell>
        <mxCell id="cPKNOaW4zX0RtkhG-VNr-33" value="#*IdProdu&lt;div&gt;*NombProdu&lt;/div&gt;&lt;div&gt;*DescripcionProdu&lt;/div&gt;&lt;div&gt;*PrecioProdu&lt;/div&gt;&lt;div&gt;*StockProd&lt;/div&gt;" style="align=left;strokeColor=none;fillColor=none;spacingLeft=4;fontSize=12;verticalAlign=top;resizable=0;rotatable=0;part=1;html=1;" vertex="1" parent="cPKNOaW4zX0RtkhG-VNr-32">
          <mxGeometry y="50" width="180" height="80" as="geometry" />
        </mxCell>
        <mxCell id="cPKNOaW4zX0RtkhG-VNr-34" value="" style="edgeStyle=entityRelationEdgeStyle;fontSize=12;html=1;endArrow=ERmany;rounded=0;" edge="1" parent="1">
          <mxGeometry width="100" height="100" relative="1" as="geometry">
            <mxPoint x="280" y="100" as="sourcePoint" />
            <mxPoint x="340" y="100" as="targetPoint" />
          </mxGeometry>
        </mxCell>
        <mxCell id="cPKNOaW4zX0RtkhG-VNr-35" value="" style="endArrow=none;html=1;rounded=0;dashed=1;dashPattern=1 2;" edge="1" parent="1">
          <mxGeometry relative="1" as="geometry">
            <mxPoint x="220" y="99.5" as="sourcePoint" />
            <mxPoint x="280" y="101" as="targetPoint" />
          </mxGeometry>
        </mxCell>
        <mxCell id="cPKNOaW4zX0RtkhG-VNr-36" value="" style="edgeStyle=entityRelationEdgeStyle;fontSize=12;html=1;endArrow=none;rounded=0;startArrow=ERmany;startFill=0;endFill=0;" edge="1" parent="1">
          <mxGeometry width="100" height="100" relative="1" as="geometry">
            <mxPoint x="475" y="110" as="sourcePoint" />
            <mxPoint x="530" y="110" as="targetPoint" />
          </mxGeometry>
        </mxCell>
        <mxCell id="cPKNOaW4zX0RtkhG-VNr-37" value="" style="endArrow=none;html=1;rounded=0;dashed=1;dashPattern=1 2;entryX=0;entryY=0.25;entryDx=0;entryDy=0;" edge="1" parent="1" target="cPKNOaW4zX0RtkhG-VNr-33">
          <mxGeometry relative="1" as="geometry">
            <mxPoint x="530" y="111" as="sourcePoint" />
            <mxPoint x="590" y="111" as="targetPoint" />
          </mxGeometry>
        </mxCell>
        <mxCell id="cPKNOaW4zX0RtkhG-VNr-38" style="edgeStyle=orthogonalEdgeStyle;rounded=0;orthogonalLoop=1;jettySize=auto;html=1;exitX=0.5;exitY=1;exitDx=0;exitDy=0;endArrow=none;endFill=0;dashed=1;" edge="1" parent="1" source="cPKNOaW4zX0RtkhG-VNr-2">
          <mxGeometry relative="1" as="geometry">
            <mxPoint x="140" y="200" as="targetPoint" />
          </mxGeometry>
        </mxCell>
        <mxCell id="cPKNOaW4zX0RtkhG-VNr-39" style="edgeStyle=orthogonalEdgeStyle;rounded=0;orthogonalLoop=1;jettySize=auto;html=1;exitX=0.5;exitY=1;exitDx=0;exitDy=0;endArrow=none;endFill=0;startArrow=ERmany;startFill=0;" edge="1" parent="1" source="cPKNOaW4zX0RtkhG-VNr-33">
          <mxGeometry relative="1" as="geometry">
            <mxPoint x="700" y="230" as="targetPoint" />
          </mxGeometry>
        </mxCell>
        <mxCell id="cPKNOaW4zX0RtkhG-VNr-40" style="edgeStyle=orthogonalEdgeStyle;rounded=0;orthogonalLoop=1;jettySize=auto;html=1;exitX=0.5;exitY=1;exitDx=0;exitDy=0;dashed=1;endArrow=none;endFill=0;" edge="1" parent="1" source="cPKNOaW4zX0RtkhG-VNr-29">
          <mxGeometry relative="1" as="geometry">
            <mxPoint x="680" y="490" as="targetPoint" />
          </mxGeometry>
        </mxCell>
        <mxCell id="cPKNOaW4zX0RtkhG-VNr-41" style="edgeStyle=orthogonalEdgeStyle;rounded=0;orthogonalLoop=1;jettySize=auto;html=1;exitX=0.5;exitY=1;exitDx=0;exitDy=0;endArrow=none;endFill=0;dashed=1;" edge="1" parent="1" source="cPKNOaW4zX0RtkhG-VNr-11">
          <mxGeometry relative="1" as="geometry">
            <mxPoint x="140" y="510" as="targetPoint" />
          </mxGeometry>
        </mxCell>
        <mxCell id="cPKNOaW4zX0RtkhG-VNr-42" style="edgeStyle=orthogonalEdgeStyle;rounded=0;orthogonalLoop=1;jettySize=auto;html=1;exitX=0.75;exitY=1;exitDx=0;exitDy=0;dashed=1;endArrow=none;endFill=0;" edge="1" parent="1" source="cPKNOaW4zX0RtkhG-VNr-11">
          <mxGeometry relative="1" as="geometry">
            <mxPoint x="260" y="500" as="targetPoint" />
          </mxGeometry>
        </mxCell>
        <mxCell id="cPKNOaW4zX0RtkhG-VNr-43" style="edgeStyle=orthogonalEdgeStyle;rounded=0;orthogonalLoop=1;jettySize=auto;html=1;exitX=0.5;exitY=1;exitDx=0;exitDy=0;endArrow=none;endFill=0;startArrow=ERmany;startFill=0;" edge="1" parent="1" source="cPKNOaW4zX0RtkhG-VNr-26">
          <mxGeometry relative="1" as="geometry">
            <mxPoint x="694" y="1060" as="targetPoint" />
          </mxGeometry>
        </mxCell>
        <mxCell id="cPKNOaW4zX0RtkhG-VNr-44" style="edgeStyle=orthogonalEdgeStyle;rounded=0;orthogonalLoop=1;jettySize=auto;html=1;exitX=0;exitY=0.25;exitDx=0;exitDy=0;dashed=1;endArrow=none;endFill=0;" edge="1" parent="1" source="cPKNOaW4zX0RtkhG-VNr-6">
          <mxGeometry relative="1" as="geometry">
            <mxPoint x="294" y="1060" as="targetPoint" />
          </mxGeometry>
        </mxCell>
        <mxCell id="cPKNOaW4zX0RtkhG-VNr-45" style="edgeStyle=orthogonalEdgeStyle;rounded=0;orthogonalLoop=1;jettySize=auto;html=1;exitX=1;exitY=0.25;exitDx=0;exitDy=0;endArrow=none;endFill=0;startArrow=ERmany;startFill=0;" edge="1" parent="1" source="cPKNOaW4zX0RtkhG-VNr-31">
          <mxGeometry relative="1" as="geometry">
            <mxPoint x="294" y="1060" as="targetPoint" />
          </mxGeometry>
        </mxCell>
        <mxCell id="cPKNOaW4zX0RtkhG-VNr-46" style="edgeStyle=orthogonalEdgeStyle;rounded=0;orthogonalLoop=1;jettySize=auto;html=1;exitX=0;exitY=1;exitDx=0;exitDy=0;endArrow=none;endFill=0;startArrow=ERmany;startFill=0;" edge="1" parent="1" source="cPKNOaW4zX0RtkhG-VNr-33">
          <mxGeometry relative="1" as="geometry">
            <mxPoint x="540" y="340" as="targetPoint" />
          </mxGeometry>
        </mxCell>
        <mxCell id="cPKNOaW4zX0RtkhG-VNr-47" style="edgeStyle=orthogonalEdgeStyle;rounded=0;orthogonalLoop=1;jettySize=auto;html=1;exitX=0;exitY=0.5;exitDx=0;exitDy=0;dashed=1;endArrow=none;endFill=0;" edge="1" parent="1" source="cPKNOaW4zX0RtkhG-VNr-33">
          <mxGeometry relative="1" as="geometry">
            <mxPoint x="490" y="230" as="targetPoint" />
          </mxGeometry>
        </mxCell>
        <mxCell id="cPKNOaW4zX0RtkhG-VNr-48" style="edgeStyle=orthogonalEdgeStyle;rounded=0;orthogonalLoop=1;jettySize=auto;html=1;exitX=1;exitY=0.25;exitDx=0;exitDy=0;endArrow=none;endFill=0;startArrow=ERmany;startFill=0;" edge="1" parent="1" source="cPKNOaW4zX0RtkhG-VNr-8">
          <mxGeometry relative="1" as="geometry">
            <mxPoint x="490" y="200" as="targetPoint" />
          </mxGeometry>
        </mxCell>
        <mxCell id="cPKNOaW4zX0RtkhG-VNr-49" value="&lt;font color=&quot;#000000&quot;&gt;DetalleCompra&lt;/font&gt;" style="swimlane;childLayout=stackLayout;horizontal=1;startSize=50;horizontalStack=0;rounded=1;fontSize=14;fontStyle=0;strokeWidth=2;resizeParent=0;resizeLast=1;shadow=0;dashed=0;align=center;arcSize=4;whiteSpace=wrap;html=1;fillColor=#b0e3e6;strokeColor=#0e8088;" vertex="1" parent="1">
          <mxGeometry x="340" y="740" width="160" height="120" as="geometry" />
        </mxCell>
        <mxCell id="cPKNOaW4zX0RtkhG-VNr-50" value="*cantidadDetComp&lt;div&gt;*PrecioDetComp&lt;/div&gt;&lt;div&gt;*MontoTotalProdDetComp&lt;/div&gt;" style="align=left;strokeColor=none;fillColor=none;spacingLeft=4;fontSize=12;verticalAlign=top;resizable=0;rotatable=0;part=1;html=1;" vertex="1" parent="cPKNOaW4zX0RtkhG-VNr-49">
          <mxGeometry y="50" width="160" height="70" as="geometry" />
        </mxCell>
        <mxCell id="cPKNOaW4zX0RtkhG-VNr-51" value="" style="swimlane;childLayout=stackLayout;horizontal=1;startSize=50;horizontalStack=0;rounded=1;fontSize=14;fontStyle=0;strokeWidth=2;resizeParent=0;resizeLast=1;shadow=0;dashed=0;align=center;arcSize=4;whiteSpace=wrap;html=1;" vertex="1" parent="cPKNOaW4zX0RtkhG-VNr-49">
          <mxGeometry y="120" width="160" as="geometry" />
        </mxCell>
        <mxCell id="cPKNOaW4zX0RtkhG-VNr-52" style="edgeStyle=orthogonalEdgeStyle;rounded=0;orthogonalLoop=1;jettySize=auto;html=1;exitX=0;exitY=0.5;exitDx=0;exitDy=0;endArrow=none;endFill=0;startArrow=ERmany;startFill=0;" edge="1" parent="1" source="cPKNOaW4zX0RtkhG-VNr-50">
          <mxGeometry relative="1" as="geometry">
            <mxPoint x="90" y="825" as="targetPoint" />
          </mxGeometry>
        </mxCell>
        <mxCell id="cPKNOaW4zX0RtkhG-VNr-53" style="edgeStyle=orthogonalEdgeStyle;rounded=0;orthogonalLoop=1;jettySize=auto;html=1;exitX=0.5;exitY=1;exitDx=0;exitDy=0;dashed=1;endArrow=none;endFill=0;" edge="1" parent="1" source="cPKNOaW4zX0RtkhG-VNr-20">
          <mxGeometry relative="1" as="geometry">
            <mxPoint x="90" y="830" as="targetPoint" />
          </mxGeometry>
        </mxCell>
        <mxCell id="cPKNOaW4zX0RtkhG-VNr-54" style="edgeStyle=orthogonalEdgeStyle;rounded=0;orthogonalLoop=1;jettySize=auto;html=1;exitX=1;exitY=0.5;exitDx=0;exitDy=0;endArrow=none;endFill=0;startArrow=ERmany;startFill=0;" edge="1" parent="1" source="cPKNOaW4zX0RtkhG-VNr-50">
          <mxGeometry relative="1" as="geometry">
            <mxPoint x="410" y="430" as="targetPoint" />
          </mxGeometry>
        </mxCell>
        <mxCell id="cPKNOaW4zX0RtkhG-VNr-55" style="edgeStyle=orthogonalEdgeStyle;rounded=0;orthogonalLoop=1;jettySize=auto;html=1;exitX=0;exitY=0.75;exitDx=0;exitDy=0;startArrow=none;startFill=0;dashed=1;endArrow=none;endFill=0;" edge="1" parent="1" source="cPKNOaW4zX0RtkhG-VNr-33">
          <mxGeometry relative="1" as="geometry">
            <mxPoint x="500" y="360" as="targetPoint" />
          </mxGeometry>
        </mxCell>
        <mxCell id="cPKNOaW4zX0RtkhG-VNr-56" value="" style="endArrow=none;html=1;rounded=0;dashed=1;" edge="1" parent="1">
          <mxGeometry width="50" height="50" relative="1" as="geometry">
            <mxPoint x="410" y="430" as="sourcePoint" />
            <mxPoint x="500" y="360" as="targetPoint" />
          </mxGeometry>
        </mxCell>
        <mxCell id="cPKNOaW4zX0RtkhG-VNr-58" value="&lt;font color=&quot;#000000&quot;&gt;MetodoPago&lt;/font&gt;" style="swimlane;childLayout=stackLayout;horizontal=1;startSize=50;horizontalStack=0;rounded=1;fontSize=14;fontStyle=0;strokeWidth=2;resizeParent=0;resizeLast=1;shadow=0;dashed=0;align=center;arcSize=4;whiteSpace=wrap;html=1;fillColor=#b0e3e6;strokeColor=#0e8088;" vertex="1" parent="1">
          <mxGeometry x="-180" y="575" width="160" height="120" as="geometry" />
        </mxCell>
        <mxCell id="cPKNOaW4zX0RtkhG-VNr-60" value="" style="swimlane;childLayout=stackLayout;horizontal=1;startSize=50;horizontalStack=0;rounded=1;fontSize=14;fontStyle=0;strokeWidth=2;resizeParent=0;resizeLast=1;shadow=0;dashed=0;align=center;arcSize=4;whiteSpace=wrap;html=1;" vertex="1" parent="cPKNOaW4zX0RtkhG-VNr-58">
          <mxGeometry y="50" width="160" as="geometry" />
        </mxCell>
        <mxCell id="cPKNOaW4zX0RtkhG-VNr-61" value="&lt;font color=&quot;#000000&quot;&gt;Compra&lt;/font&gt;" style="swimlane;childLayout=stackLayout;horizontal=1;startSize=50;horizontalStack=0;rounded=1;fontSize=14;fontStyle=0;strokeWidth=2;resizeParent=0;resizeLast=1;shadow=0;dashed=0;align=center;arcSize=4;whiteSpace=wrap;html=1;fillColor=#b0e3e6;strokeColor=#0e8088;" vertex="1" parent="cPKNOaW4zX0RtkhG-VNr-58">
          <mxGeometry y="50" width="160" height="70" as="geometry" />
        </mxCell>
        <mxCell id="cPKNOaW4zX0RtkhG-VNr-63" value="" style="swimlane;childLayout=stackLayout;horizontal=1;startSize=50;horizontalStack=0;rounded=1;fontSize=14;fontStyle=0;strokeWidth=2;resizeParent=0;resizeLast=1;shadow=0;dashed=0;align=center;arcSize=4;whiteSpace=wrap;html=1;" vertex="1" parent="cPKNOaW4zX0RtkhG-VNr-61">
          <mxGeometry y="50" width="160" height="20" as="geometry" />
        </mxCell>
      </root>
    </mxGraphModel>
  </diagram>
</mxfile>
